HIERARCHY
ROOT hips
{
  OFFSET 0 10.6860622 2.3727825e-15
  CHANNELS 6 Xposition Yposition Zposition Yrotation Xrotation Zrotation
  JOINT leftUpperLeg
  {
    OFFSET 0.6642549969 -0.9402397400000004 0
    CHANNELS 3 Yrotation Xrotation Zrotation
    JOINT leftLowerLeg
    {
      OFFSET 0 -3.997221335632195 0
      CHANNELS 3 Yrotation Xrotation Zrotation
      JOINT leftFoot
      {
        OFFSET -0.13777839790000004 -4.6145792000000005 -0.22186036399999998
        CHANNELS 3 Yrotation Xrotation Zrotation
        JOINT leftToes
        {
          OFFSET -0.03777410834999995 -0.9130806927000008 0.85230013
          CHANNELS 3 Yrotation Xrotation Zrotation
          End Site
          {
            OFFSET -0.03777410834999995 -0.9130806927000008 0.85230013
          }
        }
      }
    }
  }
  JOINT rightUpperLeg
  {
    OFFSET -0.6642778626 -0.9402397400000004 0
    CHANNELS 3 Yrotation Xrotation Zrotation
    JOINT rightLowerLeg
    {
      OFFSET 0 -3.997221452859387 0
      CHANNELS 3 Yrotation Xrotation Zrotation
      JOINT rightFoot
      {
        OFFSET 0.1377926176 -4.6145792000000005 -0.22185782299999995
        CHANNELS 3 Yrotation Xrotation Zrotation
        JOINT rightToes
        {
          OFFSET 0.037780746850000047 -0.9130806927000008 0.85230167
          CHANNELS 3 Yrotation Xrotation Zrotation
          End Site
          {
            OFFSET 0.037780746850000047 -0.9130806927000008 0.85230167
          }
        }
      }
    }
  }
  JOINT spine
  {
    OFFSET 0 0.13988381660000015 0
    CHANNELS 3 Yrotation Xrotation Zrotation
    JOINT chest
    {
      OFFSET 0 0.6191039003973773 0
      CHANNELS 3 Yrotation Xrotation Zrotation
      JOINT upperChest
      {
        OFFSET 0 0.9855186130586943 0
        CHANNELS 3 Yrotation Xrotation Zrotation
        JOINT leftShoulder
        {
          OFFSET 0.1807663869 1.5087829790000005 0
          CHANNELS 3 Yrotation Xrotation Zrotation
          JOINT leftUpperArm
          {
            OFFSET 0.5985063006419806 0 0
            CHANNELS 3 Yrotation Xrotation Zrotation
            JOINT leftLowerArm
            {
              OFFSET 2.2993332369501065 0 0
              CHANNELS 3 Yrotation Xrotation Zrotation
              JOINT leftHand
              {
                OFFSET 2.395047042602395 0 0
                CHANNELS 3 Yrotation Xrotation Zrotation
                JOINT leftIndexProximal
                {
                  OFFSET 0.5766295810000004 0.04556643899499946 0.17265095988184
                  CHANNELS 3 Yrotation Xrotation Zrotation
                  JOINT leftIndexIntermediate
                  {
                    OFFSET 0.2957229000000008 -0.019352197700001517 -0.007932640616999987
                    CHANNELS 3 Yrotation Xrotation Zrotation
                    JOINT leftIndexDistal
                    {
                      OFFSET 0.19008243099999922 -0.012484908149998475 -0.002786250786000012
                      CHANNELS 3 Yrotation Xrotation Zrotation
                      End Site
                      {
                        OFFSET 0.19008243099999922 -0.012484908149998475 -0.002786250786000012
                      }
                    }
                  }
                }
                JOINT leftMiddleProximal
                {
                  OFFSET 0.5834975091000001 0.0524350405149987 0.02204081888183999
                  CHANNELS 3 Yrotation Xrotation Zrotation
                  JOINT leftMiddleIntermediate
                  {
                    OFFSET 0.33880573540000003 -0.019871473270000717 -0.00000971183179999946
                    CHANNELS 3 Yrotation Xrotation Zrotation
                    JOINT leftMiddleDistal
                    {
                      OFFSET 0.20676022730000088 -0.012221336379999448 0.0001471936708000235
                      CHANNELS 3 Yrotation Xrotation Zrotation
                      End Site
                      {
                        OFFSET 0.20676022730000088 -0.012221336379999448 0.0001471936708000235
                      }
                    }
                  }
                }
                JOINT leftLittleProximal
                {
                  OFFSET 0.5344154683999995 -0.012880921405001189 -0.24414037221816004
                  CHANNELS 3 Yrotation Xrotation Zrotation
                  JOINT leftLittleIntermediate
                  {
                    OFFSET 0.21758961730000093 -0.011650919939999227 0.011893592810000034
                    CHANNELS 3 Yrotation Xrotation Zrotation
                    JOINT leftLittleDistal
                    {
                      OFFSET 0.1475273964999999 -0.008152365682999818 0.006001092492999946
                      CHANNELS 3 Yrotation Xrotation Zrotation
                      End Site
                      {
                        OFFSET 0.1475273964999999 -0.008152365682999818 0.006001092492999946
                      }
                    }
                  }
                }
                JOINT leftRingProximal
                {
                  OFFSET 0.5799399463000003 0.026911854694997794 -0.12150566991816003
                  CHANNELS 3 Yrotation Xrotation Zrotation
                  JOINT leftRingIntermediate
                  {
                    OFFSET 0.26167887460000006 -0.013480186499999602 0.010996293000000053
                    CHANNELS 3 Yrotation Xrotation Zrotation
                    JOINT leftRingDistal
                    {
                      OFFSET 0.17667108799999987 -0.008990287899999228 0.0055541023999999065
                      CHANNELS 3 Yrotation Xrotation Zrotation
                      End Site
                      {
                        OFFSET 0.17667108799999987 -0.008990287899999228 0.0055541023999999065
                      }
                    }
                  }
                }
                JOINT leftThumbProximal
                {
                  OFFSET 0.11018806699999972 -0.09448718900500053 0.17047963138184
                  CHANNELS 3 Yrotation Xrotation Zrotation
                  JOINT leftThumbIntermediate
                  {
                    OFFSET 0.31062601459999983 -0.08126270900000132 0.15443142000000007
                    CHANNELS 3 Yrotation Xrotation Zrotation
                    JOINT leftThumbDistal
                    {
                      OFFSET 0.21627175790000086 -0.08833193599999878 0.018771167799999988
                      CHANNELS 3 Yrotation Xrotation Zrotation
                      End Site
                      {
                        OFFSET 0.21627175790000086 -0.08833193599999878 0.018771167799999988
                      }
                    }
                  }
                }
              }
            }
          }
        }
        JOINT neck
        {
          OFFSET 0 1.5463305265074576 0
          CHANNELS 3 Yrotation Xrotation Zrotation
          JOINT head
          {
            OFFSET 0 0.8456443600000344 0
            CHANNELS 3 Yrotation Xrotation Zrotation
            JOINT leftEye
            {
              OFFSET 0.30408573140000006 0.5104519199999995 0.1276382305
              CHANNELS 3 Yrotation Xrotation Zrotation
              End Site
              {
                OFFSET 0.30408573140000006 0.5104519199999995 0.1276382305
              }
            }
            JOINT rightEye
            {
              OFFSET -0.30409491089999996 0.5104519199999995 0.1276379445
              CHANNELS 3 Yrotation Xrotation Zrotation
              End Site
              {
                OFFSET -0.30409491089999996 0.5104519199999995 0.1276379445
              }
            }
            JOINT jaw
            {
              OFFSET -3.155239131000001e-7 -0.11984121820000082 0.60178107
              CHANNELS 3 Yrotation Xrotation Zrotation
              End Site
              {
                OFFSET -3.155239131000001e-7 -0.11984121820000082 0.60178107
              }
            }
          }
        }
        JOINT rightShoulder
        {
          OFFSET -0.1807303465 1.5087829790000005 0
          CHANNELS 3 Yrotation Xrotation Zrotation
          JOINT rightUpperArm
          {
            OFFSET -0.5985063796536958 0 0
            CHANNELS 3 Yrotation Xrotation Zrotation
            JOINT rightLowerArm
            {
              OFFSET -2.2993322059002854 0 0
              CHANNELS 3 Yrotation Xrotation Zrotation
              JOINT rightHand
              {
                OFFSET -2.395045314457259 0 0
                CHANNELS 3 Yrotation Xrotation Zrotation
                JOINT rightIndexProximal
                {
                  OFFSET -0.5764487688300002 0.0441371204405987 0.17361932004999997
                  CHANNELS 3 Yrotation Xrotation Zrotation
                  JOINT rightIndexIntermediate
                  {
                    OFFSET -0.29573011380000047 -0.01934826376999843 -0.007698921482999974
                    CHANNELS 3 Yrotation Xrotation Zrotation
                    JOINT rightIndexDistal
                    {
                      OFFSET -0.19008373999999884 -0.012503266380000655 -0.0026365778999999897
                      CHANNELS 3 Yrotation Xrotation Zrotation
                      End Site
                      {
                        OFFSET -0.19008373999999884 -0.012503266380000655 -0.0026365778999999897
                      }
                    }
                  }
                }
                JOINT rightMiddleProximal
                {
                  OFFSET -0.5834852037300005 0.05211639405060153 0.02307162440000001
                  CHANNELS 3 Yrotation Xrotation Zrotation
                  JOINT rightMiddleIntermediate
                  {
                    OFFSET -0.33880114510000003 -0.019952774050000954 0.0002455003561999819
                    CHANNELS 3 Yrotation Xrotation Zrotation
                    JOINT rightMiddleDistal
                    {
                      OFFSET -0.20675694929999955 -0.012273788999999091 0.00030209124000002766
                      CHANNELS 3 Yrotation Xrotation Zrotation
                      End Site
                      {
                        OFFSET -0.20675694929999955 -0.012273788999999091 0.00030209124000002766
                      }
                    }
                  }
                }
                JOINT rightLittleProximal
                {
                  OFFSET -0.5346811737299992 -0.011214256288399227 -0.24363941305000003
                  CHANNELS 3 Yrotation Xrotation Zrotation
                  JOINT rightLittleIntermediate
                  {
                    OFFSET -0.21757715980000092 -0.011771559690000988 0.01201554387
                    CHANNELS 3 Yrotation Xrotation Zrotation
                    JOINT rightLittleDistal
                    {
                      OFFSET -0.1475201849000004 -0.00822055339600003 0.006082065407000015
                      CHANNELS 3 Yrotation Xrotation Zrotation
                      End Site
                      {
                        OFFSET -0.1475201849000004 -0.00822055339600003 0.006082065407000015
                      }
                    }
                  }
                }
                JOINT rightRingProximal
                {
                  OFFSET -0.5800810755299999 0.027657985680600072 -0.12066365025000003
                  CHANNELS 3 Yrotation Xrotation Zrotation
                  JOINT rightRingIntermediate
                  {
                    OFFSET -0.26166445029999974 -0.013623118409999302 0.011164098990000045
                    CHANNELS 3 Yrotation Xrotation Zrotation
                    JOINT rightRingDistal
                    {
                      OFFSET -0.17666387530000027 -0.009072900100000503 0.005668185599999959
                      CHANNELS 3 Yrotation Xrotation Zrotation
                      End Site
                      {
                        OFFSET -0.17666387530000027 -0.009072900100000503 0.005668185599999959
                      }
                    }
                  }
                }
                JOINT rightThumbProximal
                {
                  OFFSET -0.10997596379000074 -0.09577489355940072 0.16989765924999997
                  CHANNELS 3 Yrotation Xrotation Zrotation
                  JOINT rightThumbIntermediate
                  {
                    OFFSET -0.31036620999999986 -0.08229339117999834 0.15440884469999996
                    CHANNELS 3 Yrotation Xrotation Zrotation
                    JOINT rightThumbDistal
                    {
                      OFFSET -0.21631306399999906 -0.08825326400000111 0.018656797720000014
                      CHANNELS 3 Yrotation Xrotation Zrotation
                      End Site
                      {
                        OFFSET -0.21631306399999906 -0.08825326400000111 0.018656797720000014
                      }
                    }
                  }
                }
              }
            }
          }
        }
      }
    }
  }
}
MOTION
Frames: 4
Frame Time: 0.03333333333333333
-0.015164053067564964 -4.790141923358155 0.2612916827201843 -1.1899896641388683 -9.46399767460757 2.6013478832461616 7.663789948930779 -82.5967050433138 5.185190749176408 -79.78886201041551 81.44734985526091 -84.72684244263468 0.12066187657560447 3.758883622614889 3.3658602673719327 -6.62716403425333e-7 -0.000007636975693177545 -0.0000027664354699399856 2.592681708559177 -84.10664774978981 -10.916359919118733 -103.68369152359311 80.45865272893636 -102.09889515759656 -1.881831787350402 0.36730354234957346 -4.436259314508686 0.000010830592902992012 -0.11575341569981848 0.000003275393958954604 -1.92861432702927 20.1614033024625 -4.613253192641714 -0.22110628978976543 4.5209971818866785 -0.7762287362158025 0 0 0 -14.62061204880008 1.5331066264353048 -7.466397247144334 -16.792947291108494 -17.262187006592338 -49.75412426517556 -57.12258435710528 0.3383508350511959 0.6216190764345488 -2.3586891009215316 25.68254776202175 14.119068116450162 5.645388897731038 0.9479023154414051 -55.06970448352998 2.7925005994161713 0.827376345653367 -33.00398772125108 1.1605640802214399 0.133131605778208 -13.088376234891498 3.57440500987181 -0.7951430523233642 -44.57523859133459 2.6841601959393326 0.7589036447035739 -31.57245293940387 1.8310884743101272 0.3382331189578826 -20.931434497022643 6.932805636569977 1.8152454320287656 -27.820355344069643 1.3853408929930249 0.19075390221051125 -15.682183534291134 2.144559203718789 0.4702038780113216 -24.732326711699685 6.793254525607341 2.1618370538274467 -38.23081714164489 1.8955549847423525 0.36338090630825876 -21.704519435382846 1.6576382941529053 0.27544791600690305 -18.86981355397377 -2.6476828684209 6.704901606640076 1.3325594199890523 23.577146321374975 17.288114324556044 -2.671581339357574 -1.0058641716739167 3.280535850298332 3.8562360747426228 0.5054893673055446 1.386805427045288 -0.012065459290367966 3.2198270555321646 -17.118444813326533 2.6122712027388686 0 0 0 0 0 0 0 0 0 17.599588355191344 1.41065800561471 12.169097623385516 32.189119088623606 -22.301899294386818 39.592851371153344 37.645966165526104 0.15408319694317257 -0.45203337119262893 8.464837272017816 24.106761149637435 2.9049125766679693 -4.817674462692081 0.9011768834241872 49.544602348939144 -2.2982188938998336 0.7434891975724883 35.84888343100916 -1.224879754866083 0.19610848087087854 18.191337452295965 -3.1504113125012085 -0.7918498916456282 46.33211171056228 -1.7667933961472861 0.4203110129693961 26.76154863909789 -0.37362269547506183 0.017822855323211425 5.464801575583136 -7.14172757412802 1.9727915329858723 25.769169515145276 -1.5496889430703937 0.31901662584582957 23.263536315872553 -0.8568531272011165 0.0947328392896167 12.614964917258101 -3.02114336301834 -0.33048485777701414 35.854851296323446 -1.3912475511561648 0.2549563284652395 20.768219658421405 -0.29110696433405336 0.01081161088854318 4.25528609764488 3.190841816042385 4.3479429359877395 -16.665371341753165 -15.68731847989048 29.531411172361054 10.502454301112497 -9.934736022789815 -2.226541630379933 17.847383519960562
-0.015416624955832958 -4.79017768614502 0.2611985504627228 -1.1886398140485226 -9.44509621241418 2.614627758213866 7.738686200172519 -82.61052639499405 5.113142816869835 -79.75629377334612 81.41766321814734 -84.70371107803517 0.12077747139807675 3.764814760905972 3.3676527841475283 -0.0000013073162656072997 -0.00006276832175067442 -0.000002224455314000129 2.7145061057244306 -84.12823998276278 -11.04036765163595 -103.66537335369972 80.4582818869106 -102.08078769071493 -1.882384070514443 0.37124579063759944 -4.43927828690616 -0.0000075713563270942135 -0.12014986570731544 0.0000018052961821010667 -1.9367677036215118 20.13952946718884 -4.632217494274115 -0.22282585825390627 4.520760376696002 -0.7760104607190643 0 0 0 -14.63741976794664 1.5358039175739622 -7.447956083028699 -16.779151642177727 -17.258206764698446 -49.76679477774263 -57.149014783289424 0.3386656428970637 0.6217982384553956 -2.276154754878604 25.788698059031038 14.19804395380202 5.691386978285985 1.0092822281093716 -55.15889551817042 2.796428458468334 0.8299331848803989 -33.056253886690826 1.1381182753459518 0.12795699033712518 -12.830726913362493 3.5972403133775437 -0.7828654769433795 -44.69978227270208 2.683810981773401 0.7587322346116322 -31.567957133836394 1.8052444065383584 0.3284147693094203 -20.622407612205667 6.946064122162554 1.8263849052320285 -27.904062278793003 1.3944862261666429 0.19334403922010385 -15.78848319955362 2.107674702441421 0.45339316916034983 -24.279387298927 6.931049935277455 2.2831133609938923 -38.53727121657057 1.925970990833844 0.3756057050433838 -22.070824422634505 1.6214384043696095 0.2632327614191543 -18.44274234791872 -2.647740833058727 6.704899457507326 1.3325542634654477 23.641799235208495 17.076960447087117 -2.2574447070408032 -1.7029842590392865 3.003684547110087 4.4206995886086 0.5052423737766266 1.3868163158487452 -0.012547783408961023 3.2620080458948335 -17.10673156906983 2.5864001105158314 0 0 0 0 0 0 0 0 0 17.599650346298937 1.4111396799832148 12.1692240922255 32.20484782309546 -22.281966350256724 39.58565316148779 37.63731492051531 0.1540219651431509 -0.4519563735981138 8.440966015617708 24.065728338989363 2.868912104027025 -4.8631559927631 0.9517250785882803 49.70470771185838 -2.2982248660108686 0.7434799653676752 35.84892034779411 -1.2265717203699942 0.19666546472519572 18.217391546585443 -3.11938952941797 -0.8127292656366737 46.17382281830517 -1.7647546734973605 0.41926791370049976 26.72783901785744 -0.37616943053582347 0.018085730907777788 5.502293704489032 -7.1782421943546995 1.9669713335943746 25.423661153328098 -1.5206946479191605 0.30668288122785237 22.80340951983081 -0.8538582896839021 0.09403441147870743 12.569959190621905 -3.105792014293362 -0.2584917605831266 35.567281740134504 -1.3768811773936382 0.24954327104470642 20.544086284609822 -0.28824036010995674 0.010604772546439713 4.213350123131016 3.1908531205173967 4.347948073414918 -16.665360516271093 -15.614435349871187 29.498130599826553 10.495594236506076 -10.0966912761682 -1.9940564068824702 18.091054866351183
-0.015456374734640121 -4.79041372053833 0.2607107162475586 -1.1787402672354572 -9.45280450457988 2.609675367153469 7.7495280681659615 -82.60816353785103 5.09498682052678 -79.75621264858235 81.40574850183994 -84.70090963648262 0.12059369302886044 3.771426162475986 3.371008572983117 -8.365077634411133e-7 0.000007522668695258492 1.1753607514273677e-7 2.6488083431655416 -84.12363501123822 -10.986554354664067 -103.66891827446088 80.46073382966787 -102.08549847271786 -1.8674148239543247 0.37517128501615665 -4.441054299376546 -0.000004787246261540967 -0.11567025264099423 0.0000017694885423411579 -1.9531600782569036 20.150580591187982 -4.630923505682538 -0.23195293229497901 4.51971680754612 -0.7747989737603894 0 0 0 -14.654184104743935 1.537110767831304 -7.436670982844934 -16.8387233380806 -17.211179892054506 -49.74094902195978 -57.14633388941904 0.33863528004141047 0.6217932227429793 -2.0068997066021352 26.01856492485568 14.593206090701813 5.685924116286386 1.0098111162590604 -54.978261633193235 2.790793275058714 0.8262782250437714 -32.98120901081889 1.1120753711804336 0.12208626868426058 -12.532548208948342 3.4734418392023496 -0.88311850219556 -44.44924194322412 2.6801266171895377 0.7564368769607138 -31.519680421861242 1.7445257614293606 0.30601724843420575 -19.899199625107908 6.965909329453572 1.831223357108447 -27.785750987179203 1.3909516429518034 0.19235122824796697 -15.74739953005566 2.0369158806469696 0.42210985592914657 -23.415090580919628 7.18274181268034 2.489370446488576 -38.62993336229269 1.9845070557690636 0.39976074192298716 -22.77835960886757 1.5472196293855425 0.23909581474118452 -17.570644140882983 -2.6482684613600385 6.704827676478915 1.3323932045051268 23.626910971419854 16.5341878674044 -1.3442204892957925 -3.330652351347969 2.335502052549728 5.933376017022193 0.5040137412488626 1.3868770582924792 -0.014673608751921082 3.262815968582867 -17.035815698966484 2.565849898764595 0 0 0 0 0 0 0 0 0 17.60013457891843 1.4074466321968753 12.17911579325906 32.26106771056888 -22.245791281090963 39.553072983912 37.62447777298506 0.15390485098843593 -0.45182924460529594 8.291955889222832 24.030808978935763 2.819071707443959 -4.971821943666546 1.0749378259167186 50.0685519830211 -2.298235530494735 0.7434954946832968 35.84907678397345 -1.2306822030463984 0.19801138016046257 18.280480630249155 -3.054104042630549 -0.8556145396857882 45.83721657404486 -1.757801560416762 0.41580606312677953 26.614418648398203 -0.38510059481610287 0.01895109224194725 5.633418321232341 -7.376031975423024 2.0100708099453932 24.7052283055247 -1.4362280793673001 0.27233416794215515 21.47207018101692 -0.8443150542311277 0.09193921484089919 12.427307345308744 -3.2449111202782057 -0.1355158819594363 34.85783687977174 -1.34937667455466 0.23935776545132706 20.115753849437546 -0.2911782268347649 0.01082805687045001 4.256406515912307 3.1908550440658514 4.34794250786881 -16.665371341753165 -15.522649417931273 29.4521471948371 10.486862576461544 -10.563647838562991 -1.2939321205231378 18.843250188094945
-0.015466812066733837 -4.790765626361084 0.2599802017211914 -1.1837427052792013 -9.450695223109697 2.609114552961471 7.7611121761388056 -82.61474955034718 5.099831430363682 -79.71262038695599 81.40460591702748 -84.65256277981524 0.1211281601813181 3.7829776261602754 3.3677515400826143 0.0000012246113607810182 -0.00002923156309536169 -0.0000041783129032558296 2.5019386894802125 -84.13171277554156 -10.849272650016086 -103.68263407564599 80.4600950281382 -102.09769173051373 -1.8558833497727059 0.3732964381379962 -4.458367993847882 -0.0000048058050269477604 -0.11918409886462518 6.207973886993894e-8 -1.951801450749202 20.171157118241222 -4.638619346557597 -0.22485499769356052 4.519834995852024 -0.7730629492079338 0 0 0 -14.70422998414587 1.5338726290153017 -7.4243466548613775 -16.854405319159117 -17.133669917286177 -49.71384024950532 -57.298852605145605 0.3402718327607398 0.6228439168800058 -1.5170047118605117 26.302405400916257 15.082791635319811 5.501854212030739 0.7997839216838742 -54.00779493506792 2.7618528861308125 0.8076241493586794 -32.59669612705832 1.112486372143467 0.12218806808265746 -12.536941295872973 3.00851414317595 -1.1991589487079433 -43.0286704039879 2.6716735849441777 0.7512756887023165 -31.409136936279232 1.6663763388474349 0.2784433091152456 -18.973018978416633 7.047548071121046 1.835595422245143 -27.022461172278994 1.3609700136533684 0.18398129320406176 -15.399492076004021 1.9594101524820335 0.3893227380849757 -22.474723079208793 7.534407503354399 2.7097935403014786 -37.51061753231738 2.0349556246769636 0.42126067499814357 -23.39113517379699 1.4782911149089928 0.2178144968821087 -16.764276808764347 -2.6492205662972417 6.704698298723869 1.3321009790451035 23.27273802330689 15.78540087183425 -0.3468253813722543 -5.266109441489581 1.5447299310964884 7.95120282321325 0.5034543472108486 1.3869701468911744 -0.01448817302977927 3.268116067510909 -17.020693226224687 2.5890685241660143 0 0 0 0 0 0 0 0 0 17.5819835095806 1.4132458322227666 12.140247008842254 32.36058415323673 -22.19132672884879 39.54077651595803 37.634463723590905 0.1540060101904944 -0.4519384982034503 7.711239682397272 23.971425780755055 2.2604788281904575 -5.11544697857072 1.2414765535363588 50.674924273804464 -2.2982376633914896 0.743490104783367 35.849233220156826 -1.2351654949822133 0.19949459401115593 18.34942775002507 -2.9636722363860586 -0.9011366443641458 45.206489678636046 -1.745746325789412 0.4097979820821107 26.417921627545045 -0.3941881031569271 0.019861355073312253 5.766521963584483 -7.7639697083900545 2.142657158955028 24.1003875682294 -1.3318928425267484 0.2329937893447102 19.844038467467662 -0.8143733019767593 0.08545548991614932 11.980012743695184 -3.4490071365516703 0.03193121939905523 33.88982755762882 -1.3116136898801907 0.22574321863327362 19.529718904295795 -0.3015908871445587 0.011607295425314038 4.408987121467045 3.1908471361443813 4.347963057577724 -16.665380526690573 -15.922680073408753 29.60831567679023 10.524345101311074 -11.318489770886565 -0.043820416913556225 20.274794469313886
